<svg xmlns="http://www.w3.org/2000/svg" version="1.1" xmlns:xlink="http://www.w3.org/1999/xlink" width="1500" height="1500" viewBox="0 0 1500 1500"><rect width="1500" height="1500" x="0" y="0" id="background" stroke="transparent" fill="#000000"></rect><svg xml:space="preserve" width="1000" height="1000" data-version="2" data-id="lg_w3ElTuMhUqqEegYY71" viewBox="0 0 441 495" x="250" y="250"><rect width="100%" height="100%" fill="transparent"></rect><g transform="translate(220.1 481.49)"><filter id="a" width="147.1%" height="276.98%" x="-23.55%" y="-88.49%"><feGaussianBlur in="SourceAlpha" stdDeviation="5"></feGaussianBlur><feOffset dx="2" dy="2" result="oBlur"></feOffset><feFlood flood-color="#FFF" flood-opacity="0"></feFlood><feComposite in2="oBlur" operator="in"></feComposite><feMerge><feMergeNode></feMergeNode><feMergeNode in="SourceGraphic"></feMergeNode></feMerge></filter><g filter="url(#a)"><path fill="#fff" d="M-168.97 3.84V2.33h7.15q1.38 0 2.2-.46.82-.46.82-1.54 0-.72-.38-1.17-.38-.45-1.06-.65t-1.58-.2h-3.6v-1.38h3.04q1.2 0 1.94-.49.74-.48.74-1.53 0-.7-.32-1.11-.33-.42-.87-.61t-1.17-.19h-6.91v-1.51h7.04q1.35 0 2.26.41.91.4 1.37 1.13.47.73.47 1.67 0 .81-.34 1.41-.34.6-.92 1.01-.57.4-1.3.59-.73.19-1.51.19v-.68q.92 0 1.79.14.88.14 1.6.5.72.35 1.15.99.43.65.43 1.62 0 1.62-1.22 2.5-1.23.87-3.49.87Zm2.32-.85V-7.66h1.84V2.99Z"></path><rect width="12.04" height="12.35" x="-6.02" y="-6.17" fill="none" rx="0" ry="0" transform="translate(-162.45 -1.83)"></rect><path fill="#fff" d="M-151.2 4.09q-.71 0-1.25-.23-.54-.24-.91-.7-.38-.47-.58-1.16-.2-.7-.2-1.62v-5.02h1.77V.33q0 .47.09.86.1.38.31.67.21.29.55.44.34.15.83.15.45 0 .92-.19.46-.2.95-.56.49-.36.97-.89.49-.53.96-1.18v1.42q-.54.72-1.08 1.28-.53.56-1.07.95-.54.4-1.09.61-.56.2-1.17.2m-4.63-7.31v-1.42h3.1v1.42Zm10.17 7.24q-.59 0-1.04-.25-.45-.25-.7-.75-.24-.49-.24-1.21v-6.45h1.76v6.3q0 .47.17.68.18.2.45.2.18 0 .3-.03.13-.04.25-.11l.4 1.28q-.23.12-.59.23-.35.11-.76.11m-3.53-7.24v-1.42h3.06v1.42Z"></path><rect width="11.52" height="8.73" x="-5.76" y="-4.37" fill="none" rx="0" ry="0" transform="translate(-149.57 .23)"></rect><path fill="#fff" d="M-141.47 3.44v-8.08h1.79v8.08Zm-1.9.4V2.42h5.61v1.42Zm0-7.06v-1.42h3.27v1.42Zm2.57-3.27q-.56 0-.96-.31-.41-.3-.41-.75 0-.51.41-.82.4-.32.96-.32.63 0 1.03.32.39.31.39.82 0 .45-.39.75-.4.31-1.03.31"></path><rect width="5.61" height="12.53" x="-2.81" y="-6.26" fill="none" rx="0" ry="0" transform="translate(-140.06 -1.93)"></rect><path fill="#fff" d="M-135.2 3.44V-8.51h1.78V3.44Zm-1.89.4V2.42h5.61v1.42Zm0-10.93v-1.42h3.56v1.42Z"></path><rect width="5.61" height="12.35" x="-2.81" y="-6.17" fill="none" rx="0" ry="0" transform="translate(-133.78 -1.83)"></rect><path fill="#fff" d="M-126.44 4.09q-1.09 0-2.03-.55-.94-.55-1.5-1.54-.57-.99-.57-2.28 0-1.03.33-1.86.34-.82.95-1.44.61-.61 1.41-.94.8-.33 1.72-.33.94 0 1.66.34t1.26.84q.55.51.97 1.01v1.3q-.43-.52-.98-.97-.55-.45-1.18-.73-.63-.28-1.33-.28-.65 0-1.19.22-.54.23-.95.62-.4.4-.62.97-.21.56-.21 1.23 0 .86.34 1.52t.96 1.02q.62.36 1.4.34.73-.02 1.39-.33.66-.32 1.24-.8.59-.49 1.07-.98v1.37q-.32.34-.74.73-.43.39-.93.74t-1.12.57q-.61.21-1.35.21m5.12-.07q-.85 0-1.39-.58-.54-.57-.54-1.63V-8.51h1.73V1.66q0 .47.17.67.17.2.42.2.2 0 .34-.05.15-.04.26-.1l.36 1.3q-.2.12-.57.23-.37.11-.78.11m-3.84-11.11v-1.42h3.48v1.42Z"></path><rect width="10.57" height="12.6" x="-5.29" y="-6.3" fill="none" rx="0" ry="0" transform="translate(-124.75 -1.71)"></rect><path fill="#fff" d="M-117.11 3.44v-8.08h1.78v8.08Zm-1.91.4V2.42h5.62v1.42Zm0-7.06v-1.42h3.28v1.42Zm2.57-3.27q-.55 0-.96-.31-.4-.3-.4-.75 0-.51.4-.82.41-.32.96-.32.63 0 1.03.32.4.31.4.82 0 .45-.4.75-.4.31-1.03.31"></path><rect width="5.62" height="12.53" x="-2.81" y="-6.26" fill="none" rx="0" ry="0" transform="translate(-115.71 -1.93)"></rect><path fill="#fff" d="M-103.74 3.84v-4.93q0-.49-.12-.87-.13-.39-.37-.67-.25-.28-.6-.42-.35-.15-.82-.15-.48 0-.98.19-.49.19-1 .56-.5.37-1 .88-.49.51-.99 1.16v-1.44q.57-.7 1.12-1.26.55-.56 1.1-.95.55-.4 1.13-.6.59-.19 1.24-.19.73 0 1.3.22.57.23.95.69.39.47.6 1.17.21.69.21 1.62v4.99Zm-8.89 0V2.42h5.24v1.42Zm1.91 0v-8.48h1.78v8.48Zm-1.91-7.06v-1.42h3.31v1.42Zm7.33 7.06V2.42h5v1.42Z"></path><rect width="12.33" height="8.69" x="-6.17" y="-4.34" fill="none" rx="0" ry="0" transform="translate(-105.97)"></rect><path fill="#fff" d="M-95.64 7.76q-1.17 0-2.1-.3-.94-.31-1.49-.87-.55-.55-.55-1.35 0-.55.28-.99.28-.43.68-.74.39-.32.75-.52l.79.42q-.34.16-.64.55-.31.38-.31.92 0 .44.33.76.34.32.97.5.64.17 1.54.17.96 0 1.79-.22.84-.22 1.37-.61.53-.4.53-.94 0-.48-.36-.7-.36-.22-.97-.22-.43 0-.87.07-.44.06-.91.14-.47.08-.98.15-.51.06-1.11.06-.77 0-1.37-.26-.59-.26-.92-.72-.34-.46-.34-1.02 0-.61.31-1.08.31-.47.77-.81.47-.34.98-.54l.75.5q-.32.17-.61.4t-.46.51q-.17.28-.17.61 0 .3.16.53.16.22.47.34.31.12.74.12.5 0 .97-.06.47-.05.94-.13.46-.08.96-.14.49-.05 1.07-.05.76 0 1.33.25.58.25.91.74.33.48.33 1.2 0 .78-.44 1.4-.44.62-1.22 1.04-.78.43-1.78.66-1 .23-2.12.23m.7-6.49q-.7 0-1.37-.19-.68-.19-1.24-.58-.55-.39-.89-.95-.33-.57-.33-1.33 0-.77.35-1.35.35-.57.92-.96.57-.39 1.23-.57.67-.19 1.33-.19.71 0 1.38.19.68.18 1.23.56.56.38.9.95.35.56.35 1.32t-.35 1.34q-.34.59-.9.97-.55.39-1.24.59-.68.2-1.37.2m0-1.28q.62 0 1.09-.22.48-.21.75-.63.27-.41.27-.97t-.29-.95q-.29-.4-.76-.6-.48-.2-1.06-.2-.55 0-1.04.22t-.77.61q-.29.4-.29.97 0 .56.29.96.28.39.77.6.49.21 1.04.21m2.45-3.58-.61-.53q.14-.57.4-.99.27-.43.64-.71.38-.28.86-.43.48-.15 1.02-.17v1.48q-.81.03-1.35.31t-.96 1.04"></path><rect width="9.7" height="14.18" x="-4.85" y="-7.09" fill="none" rx="0" ry="0" transform="translate(-94.43 1.17)"></rect><path fill="#fff" d="M-78.39-8.51V-7h-6v-1.51Zm9.14 0V-7h-6.08v-1.51Zm-8.05 12.6L-82.86-8.2h2l4.14 9.65 4.07-9.65h1.87l-5.6 12.29Z"></path><rect width="15.14" height="12.6" x="-7.57" y="-6.3" fill="none" rx="0" ry="0" transform="translate(-76.32 -1.71)"></rect><path fill="#fff" d="M-61.38 3.98q-.53 0-.94-.26-.41-.26-.66-.76-.24-.51-.24-1.21v-3.33q0-.65-.31-1.03-.3-.39-.8-.57-.49-.18-1.1-.18-.81 0-1.66.22-.85.21-1.71.57l-.38-1.38q.97-.42 1.98-.66 1.01-.24 1.98-.24 1.15 0 1.98.37.83.38 1.27 1.12.44.74.44 1.85v3.12q0 .47.16.67.17.21.45.21.17 0 .31-.05.14-.06.25-.09l.38 1.27q-.2.13-.57.25-.37.11-.83.11m-5.33.11q-.79 0-1.48-.3-.68-.31-1.09-.91-.4-.61-.4-1.49 0-.9.51-1.52t1.32-.93q.81-.32 1.73-.32 1.06 0 1.86.24.79.25 1.63.61V.62q-.95-.42-1.73-.55-.79-.14-1.45-.14-.56-.01-1.04.15-.47.16-.78.47-.31.3-.31.79 0 .41.24.7.23.29.62.42.39.14.82.14.47 0 1.06-.19.59-.19 1.25-.59.66-.39 1.32-.99l-.03 1.23q-.61.61-1.29 1.07-.67.46-1.37.71-.69.25-1.39.25"></path><rect width="9.7" height="8.94" x="-4.85" y="-4.47" fill="none" rx="0" ry="0" transform="translate(-64.33 .12)"></rect><path fill="#fff" d="M-57.51 3.44V-8.51h1.78V3.44Zm-1.89.4V2.42h5.61v1.42Zm0-10.93v-1.42h3.56v1.42Z"></path><rect width="5.61" height="12.35" x="-2.81" y="-6.17" fill="none" rx="0" ry="0" transform="translate(-56.1 -1.83)"></rect><path fill="#fff" d="M-48.73 4.09q-.7 0-1.24-.23-.54-.24-.92-.7-.38-.47-.58-1.16-.19-.7-.19-1.62v-5.02h1.76V.33q0 .47.1.86.1.38.3.67.21.29.55.44.35.15.83.15.45 0 .92-.19.47-.2.95-.56.49-.36.98-.89.48-.53.95-1.18v1.42q-.54.72-1.07 1.28t-1.07.95q-.54.4-1.1.61-.56.2-1.17.2m-4.63-7.31v-1.42h3.1v1.42Zm10.17 7.24q-.59 0-1.04-.25-.45-.25-.69-.75-.25-.49-.25-1.21v-6.45h1.77v6.3q0 .47.17.68.17.2.44.2.18 0 .31-.03.12-.04.25-.11l.39 1.28q-.23.12-.58.23-.35.11-.77.11m-3.52-7.24v-1.42h3.06v1.42Z"></path><rect width="11.52" height="8.73" x="-5.76" y="-4.37" fill="none" rx="0" ry="0" transform="translate(-47.1 .23)"></rect><path fill="#fff" d="M-36.08 4.09q-.88 0-1.72-.28-.83-.28-1.51-.82-.67-.54-1.07-1.34-.39-.8-.39-1.84 0-1.12.4-1.98.41-.87 1.09-1.46.68-.59 1.53-.91.85-.31 1.75-.31 1.08 0 1.9.33.83.33 1.31.94.48.6.48 1.41 0 .83-.5 1.38-.49.56-1.29.84-.79.28-1.67.28-1.1 0-1.97-.26-.87-.26-1.7-.64l-.02-1.08q.95.41 1.75.58.81.16 1.56.16.58 0 1.04-.15.46-.14.74-.43.29-.29.29-.68 0-.58-.5-.93-.51-.35-1.3-.35-.59 0-1.16.23-.57.22-1.03.63-.45.42-.73 1-.28.59-.28 1.34 0 .89.43 1.53.43.63 1.12.97.7.33 1.51.33 1.01 0 1.77-.33.77-.34 1.36-.84l.76 1.17q-.51.43-1.09.77-.59.35-1.3.54-.71.2-1.56.2"></path><rect width="8.64" height="8.94" x="-4.32" y="-4.47" fill="none" rx="0" ry="0" transform="translate(-35.95 .12)"></rect><path fill="#fff" d="m-29.67 7.39-.5-.51q.5-.52.9-1.01.39-.5.65-.97.25-.47.32-.95-.16.05-.37.08t-.46.03q-.5 0-.88-.31t-.38-.83q0-.54.41-.89.4-.35 1-.35.75 0 1.21.51.46.52.46 1.29 0 .65-.3 1.32-.29.68-.83 1.33-.53.64-1.23 1.26"></path><rect width="3.08" height="5.71" x="-1.54" y="-2.85" fill="none" rx="0" ry="0" transform="translate(-28.35 5.04)"></rect><path fill="#fff" d="M-13.52 4.07q-1.37 0-2.54-.46-1.17-.47-2.04-1.33-.88-.85-1.36-2.02-.49-1.17-.49-2.59 0-1.43.49-2.6.48-1.18 1.36-2.04.87-.85 2.04-1.32 1.17-.47 2.54-.47 1.35 0 2.51.47 1.16.47 2.02 1.32.87.86 1.36 2.04.5 1.17.5 2.6 0 1.42-.5 2.59-.49 1.17-1.36 2.02-.86.86-2.02 1.33-1.16.46-2.51.46m0-1.54q.97 0 1.79-.36.82-.36 1.41-1.01.6-.65.92-1.54.32-.89.32-1.95 0-1.08-.32-1.97-.32-.9-.92-1.54-.59-.65-1.41-1.01t-1.79-.36q-1.01 0-1.84.36-.83.36-1.42 1.02-.59.65-.91 1.54-.31.89-.31 1.96 0 1.08.31 1.97.32.89.91 1.54.59.64 1.42 1 .83.35 1.84.35"></path><rect width="12.82" height="12.83" x="-6.41" y="-6.42" fill="none" rx="0" ry="0" transform="translate(-13.04 -1.84)"></rect><path fill="#fff" d="M3.27 3.84v-4.93q0-.49-.12-.87-.13-.39-.37-.67-.25-.28-.6-.42-.35-.15-.82-.15-.48 0-.98.19-.49.19-1 .56-.5.37-1 .88-.49.51-.99 1.16v-1.44q.57-.7 1.12-1.26.55-.56 1.1-.95.55-.4 1.13-.6.59-.19 1.24-.19.73 0 1.3.22.57.23.95.69.39.47.6 1.17.21.69.21 1.62v4.99Zm-8.89 0V2.42h5.24v1.42Zm1.91 0v-8.48h1.78v8.48Zm-1.91-7.06v-1.42h3.31v1.42Zm7.33 7.06V2.42h5v1.42Z"></path><rect width="12.33" height="8.69" x="-6.17" y="-4.34" fill="none" rx="0" ry="0" transform="translate(1.04)"></rect><path fill="#fff" d="M12.31 4.09q-.88 0-1.72-.28t-1.51-.82q-.68-.54-1.07-1.34-.4-.8-.4-1.84 0-1.12.4-1.98.41-.87 1.09-1.46.69-.59 1.53-.91.85-.31 1.75-.31 1.08 0 1.91.33.83.33 1.3.94.48.6.48 1.41 0 .83-.5 1.38-.49.56-1.28.84-.79.28-1.68.28-1.09 0-1.97-.26-.87-.26-1.7-.64l-.02-1.08q.96.41 1.76.58.8.16 1.56.16.57 0 1.03-.15.46-.14.75-.43t.29-.68q0-.58-.51-.93-.5-.35-1.29-.35-.6 0-1.17.23-.56.22-1.02.63-.46.42-.74 1Q9.3-1 9.3-.25q0 .89.43 1.53.44.63 1.13.97.69.33 1.5.33 1.01 0 1.77-.33.77-.34 1.36-.84l.76 1.17q-.5.43-1.09.77-.58.35-1.3.54-.71.2-1.55.2"></path><rect width="8.64" height="8.94" x="-4.32" y="-4.47" fill="none" rx="0" ry="0" transform="translate(12.43 .12)"></rect><path fill="#fff" d="M22.91 3.84V2.33h7.15q1.38 0 2.2-.46.82-.46.82-1.54 0-.72-.38-1.17-.38-.45-1.06-.65t-1.58-.2h-3.6v-1.38h3.04q1.2 0 1.94-.49.74-.48.74-1.53 0-.7-.32-1.11-.33-.42-.87-.61T29.82-7h-6.91v-1.51h7.04q1.35 0 2.26.41.91.4 1.37 1.13.47.73.47 1.67 0 .81-.34 1.41-.34.6-.92 1.01-.57.4-1.3.59-.73.19-1.51.19v-.68q.92 0 1.79.14.88.14 1.6.5.72.35 1.15.99.43.65.43 1.62 0 1.62-1.22 2.5-1.23.87-3.49.87Zm2.32-.85V-7.66h1.84V2.99Z"></path><rect width="12.04" height="12.35" x="-6.02" y="-6.17" fill="none" rx="0" ry="0" transform="translate(29.43 -1.83)"></rect><path fill="#fff" d="M39.51-.41v-1.4q.66-.88 1.42-1.58.75-.69 1.56-1.08.81-.38 1.62-.38h.76v3.61h-1.55v-1.87q-.56 0-1.19.33-.63.32-1.29.92-.67.61-1.33 1.45m-3.12 4.25V2.42h5.62v1.42Zm1.91-.4v-8.08h1.78v8.08Zm-1.91-6.66v-1.42h3.58v1.42Z"></path><rect width="8.48" height="8.69" x="-4.24" y="-4.34" fill="none" rx="0" ry="0" transform="translate(41.13)"></rect><path fill="#fff" d="M48.18 3.44v-8.08h1.78v8.08Zm-1.91.4V2.42h5.62v1.42Zm0-7.06v-1.42h3.28v1.42Zm2.58-3.27q-.56 0-.97-.31-.4-.3-.4-.75 0-.51.4-.82.41-.32.97-.32.63 0 1.02.32.4.31.4.82 0 .45-.4.75-.39.31-1.02.31"></path><rect width="5.62" height="12.53" x="-2.81" y="-6.26" fill="none" rx="0" ry="0" transform="translate(49.58 -1.93)"></rect><path fill="#fff" d="M57.4 4.11q-.9 0-1.72-.31-.82-.32-1.48-.9-.65-.59-1.03-1.43-.38-.83-.38-1.84 0-.97.33-1.79.34-.82.93-1.42.59-.61 1.37-.94.77-.33 1.64-.33.86 0 1.47.26t1.07.74q.46.47.79 1.16l-.56-.15v-1.8h1.28v2.97l-.76.06q-.29-.58-.69-.98-.41-.39-.93-.59-.52-.2-1.19-.2-.63 0-1.16.21-.53.21-.92.6-.38.4-.61.96-.22.55-.22 1.22 0 .9.41 1.57.41.66 1.07 1.03.66.37 1.4.39.95.02 1.64-.35.7-.37 1.29-.93l.79 1.15q-.74.69-1.68 1.16-.95.48-2.15.48"></path><rect width="8.44" height="8.96" x="-4.22" y="-4.48" fill="none" rx="0" ry="0" transform="translate(57.51 .13)"></rect><path fill="#fff" d="M68.9.73q-.68 0-1.3-.13-.61-.13-1.18-.32-.56-.2-1.1-.42v-1.15q.63.25 1.19.41.57.17 1.08.23.5.06.93.06.6-.02 1.1-.18.5-.16.82-.49.31-.34.31-.82 0-.61-.44-.96-.44-.34-1.21-.34-.52 0-1.16.23-.64.22-1.31.63-.66.4-1.31.98l.03-1.23q.62-.61 1.29-1.08.68-.46 1.41-.73.74-.27 1.5-.27.81 0 1.51.3.7.31 1.12.91.43.6.41 1.5 0 .69-.32 1.22-.33.53-.85.9t-1.18.56q-.66.19-1.34.19m-6.71 3.11V2.42h5.4v1.42Zm1.89-.4V-8.51h1.71V3.44ZM62.19-7.09v-1.42h3.49v1.42ZM72 4.09q-.85 0-1.51-.45-.65-.45-1.07-1.29-.41-.85-.54-2.06h1.28q.16.8.44 1.31t.67.76q.38.26.85.27.34 0 .64-.07t.57-.21l.38 1.27q-.35.22-.79.35-.44.12-.92.12"></path><rect width="11.52" height="12.6" x="-5.76" y="-6.3" fill="none" rx="0" ry="0" transform="translate(68.45 -1.71)"></rect><path fill="#fff" d="M88.5 3.98q-.52 0-.93-.26-.42-.26-.66-.76-.24-.51-.24-1.21v-3.33q0-.65-.31-1.03-.31-.39-.8-.57-.5-.18-1.11-.18-.81 0-1.65.22-.85.21-1.71.57l-.38-1.38q.97-.42 1.98-.66 1.01-.24 1.98-.24 1.15 0 1.98.37.83.38 1.27 1.12.44.74.44 1.85v3.12q0 .47.16.67.16.21.45.21.16 0 .31-.05.14-.06.25-.09l.38 1.27q-.2.13-.57.25-.37.11-.84.11m-5.33.11q-.79 0-1.47-.3-.69-.31-1.09-.91-.41-.61-.41-1.49 0-.9.52-1.52.51-.62 1.32-.93.81-.32 1.73-.32 1.06 0 1.85.24.79.25 1.64.61V.62Q86.31.2 85.52.07q-.78-.14-1.45-.14-.55-.01-1.03.15t-.78.47q-.31.3-.31.79 0 .41.23.7.24.29.62.42.39.14.82.14.47 0 1.07-.19.59-.19 1.25-.59.65-.39 1.32-.99l-.04 1.23q-.61.61-1.28 1.07-.68.46-1.37.71-.69.25-1.4.25"></path><rect width="9.71" height="8.94" x="-4.86" y="-4.47" fill="none" rx="0" ry="0" transform="translate(85.56 .12)"></rect><path fill="#fff" d="M95.13 4.09q-.89 0-1.58-.39-.69-.4-1.07-1.15-.38-.74-.38-1.84V-7h1.77V.73q0 .63.2 1.02.21.4.56.59.35.19.77.19.5 0 .93-.13.43-.13.79-.32l.54 1.33q-.45.27-1.08.48-.63.2-1.45.2m-4.92-7.31v-1.42h6.46v1.42Z"></path><rect width="7.45" height="11.09" x="-3.73" y="-5.54" fill="none" rx="0" ry="0" transform="translate(94.44 -.95)"></rect><path fill="#fff" d="M112.46 3.98q-.52 0-.94-.26-.41-.26-.65-.76-.25-.51-.25-1.21v-3.33q0-.65-.3-1.03-.31-.39-.8-.57-.5-.18-1.11-.18-.81 0-1.66.22-.84.21-1.71.57l-.37-1.38q.97-.42 1.98-.66 1-.24 1.98-.24 1.15 0 1.98.37.82.38 1.26 1.12.45.74.45 1.85v3.12q0 .47.16.67.16.21.45.21.16 0 .3-.05.15-.06.26-.09l.37 1.27q-.19.13-.56.25-.37.11-.84.11m-5.33.11q-.79 0-1.47-.3-.69-.31-1.09-.91-.41-.61-.41-1.49 0-.9.51-1.52.52-.62 1.33-.93.81-.32 1.73-.32 1.06 0 1.85.24.79.25 1.64.61V.62q-.96-.42-1.74-.55-.78-.14-1.45-.14-.56-.01-1.03.15-.48.16-.79.47-.3.3-.3.79 0 .41.23.7.24.29.62.42.39.14.82.14.47 0 1.06-.19.6-.19 1.25-.59.66-.39 1.33-.99l-.04 1.23q-.61.61-1.29 1.07-.67.46-1.36.71-.7.25-1.4.25"></path><rect width="9.7" height="8.94" x="-4.85" y="-4.47" fill="none" rx="0" ry="0" transform="translate(109.51 .12)"></rect><path fill="#fff" d="M120.09-4.44v-4.07h12.64v4.07h-1.66v-2.57h-9.3v2.57Zm3.04 8.28V2.33h6.56v1.51Zm2.34-.95V-7.68h1.88V2.89Z"></path><rect width="12.64" height="12.35" x="-6.32" y="-6.17" fill="none" rx="0" ry="0" transform="translate(126.91 -1.83)"></rect><path fill="#fff" d="M135.66 3.44v-8.08h1.78v8.08Zm-1.91.4V2.42h5.62v1.42Zm0-7.06v-1.42h3.28v1.42Zm2.58-3.27q-.56 0-.97-.31-.4-.3-.4-.75 0-.51.4-.82.41-.32.97-.32.63 0 1.02.32.4.31.4.82 0 .45-.4.75-.39.31-1.02.31"></path><rect width="5.62" height="12.53" x="-2.81" y="-6.26" fill="none" rx="0" ry="0" transform="translate(137.06 -1.93)"></rect><path fill="#fff" d="M140.14-3.22v-1.42h3.19v1.42Zm1.91 6.66v-8.08h1.78v8.08Zm-1.91.4V2.42h5.24v1.42Zm8.41-.4V-1.2q0-.61-.19-1.05-.19-.44-.56-.7-.37-.25-.92-.25-.62 0-1.26.34-.65.33-1.26.96-.62.63-1.21 1.49v-1.44q.58-.92 1.26-1.59.68-.68 1.47-1.04.78-.37 1.61-.37.66 0 1.18.22.51.23.89.69.38.45.56 1.12.19.67.19 1.57v4.69Zm-1.55.4V2.42h4.86v1.42Zm7.99-.4V-1.2q0-.45-.1-.82-.09-.37-.3-.63t-.52-.4q-.32-.15-.73-.15-.61 0-1.26.34-.65.33-1.26.96-.61.63-1.19 1.49v-1.44q.58-.92 1.25-1.59.68-.68 1.45-1.04.77-.37 1.62-.37.65 0 1.17.22.52.23.89.69.37.45.56 1.12.19.67.19 1.57v4.69Zm-1.53.4V2.42h4.97v1.42Z"></path><rect width="18.29" height="8.69" x="-9.14" y="-4.34" fill="none" rx="0" ry="0" transform="translate(149.78)"></rect><path fill="#fff" d="M164.03 4.09q-.88 0-1.72-.28t-1.51-.82q-.68-.54-1.07-1.34-.4-.8-.4-1.84 0-1.12.41-1.98.4-.87 1.09-1.46.68-.59 1.53-.91.84-.31 1.74-.31 1.08 0 1.91.33.83.33 1.3.94.48.6.48 1.41 0 .83-.49 1.38-.5.56-1.29.84-.79.28-1.67.28-1.1 0-1.98-.26-.87-.26-1.7-.64l-.01-1.08q.95.41 1.75.58.8.16 1.56.16.57 0 1.03-.15.46-.14.75-.43t.29-.68q0-.58-.51-.93-.5-.35-1.29-.35-.6 0-1.16.23-.57.22-1.03.63-.46.42-.74 1-.28.59-.28 1.34 0 .89.44 1.53.43.63 1.12.97.69.33 1.5.33 1.01 0 1.78-.33.76-.34 1.36-.84l.75 1.17q-.5.43-1.09.77-.58.35-1.29.54-.71.2-1.56.2"></path><rect width="8.64" height="8.94" x="-4.32" y="-4.47" fill="none" rx="0" ry="0" transform="translate(164.15 .12)"></rect></g></g><g transform="translate(220.1 418.05)"><filter id="b" width="141.92%" height="151.02%" x="-20.96%" y="-25.51%"><feGaussianBlur in="SourceAlpha"></feGaussianBlur><feOffset dx="4" dy="4" result="oBlur"></feOffset><feFlood flood-color="#000" flood-opacity="1"></feFlood><feComposite in2="oBlur" operator="in"></feComposite><feMerge><feMergeNode></feMergeNode><feMergeNode in="SourceGraphic"></feMergeNode></feMerge></filter><g filter="url(#b)"><path fill="#fff" d="M-209.38 24.42q4.1-.36 4.96-1.23.85-.88 1.03-1.93.18-1.05.18-2.76v-36.79q0-3.42-.8-4.22-.81-.8-2.03-1.09-1.23-.28-3.34-.46v-3.1h9.27q2.35 0 5.28-.25 5.38-.47 9.46-.47 4.08 0 7.93.86 3.85.86 6.31 2.42 4.78 3.03 4.78 8.7 0 7.27-5.49 11.48-1.82 1.39-4.32 2.24 10.63 1.79 13.48 8.63.89 2.14.89 5.08t-1.34 6.1q-1.34 3.15-4.15 5.54-6.17 5.27-17.47 5.27-2.81 0-6.2-.35-6.24-.72-9.16-.72h-9.27Zm13.4-7.45q0 3.56 1.75 5.13 2.5 2.21 9.63 2.21 8.12 0 11.76-3.64 2.99-2.99 2.99-8.2 0-7.59-5.74-10.69-2.14-1.18-4.27-1.34-2.14-.16-3.32-.23l-2.42-.14q-1.25-.07-2.44-.12-1.2-.06-2.27-.13v-3.35l7.38-.46q4.67-.47 6.84-4.07 1.68-2.74 1.68-7.16 0-4.21-2.35-6.31-2.85-2.53-9.77-2.53-8.34 0-9.2 4.45-.25 1.32-.25 2.86Z"></path><rect width="47.59" height="56.32" x="-23.8" y="-28.16" fill="none" rx="0" ry="0" transform="translate(-185.09 .78)"></rect><path fill="#fff" d="M-128.25-2.75q2-1.92 2-5.84 0-1.93-1.82-3.03-1.54-.89-4.67-.89-6.77 0-6.77 4.42V19q0 1.53.3 2.53.3 1 1.37 1.6 1.85 1.07 8.56 1.29v2.95h-23.81v-2.92l.07-.03q4.2-.43 5.04-1.2.84-.76 1.03-1.78.2-1.02.2-2.73v-24.7q0-3.88-.77-4.81-.76-.93-1.87-1.28-1.1-.36-2.92-.57v-3.03h7.38q4.38 0 6.24-.18 1.85-.18 2.92-.25 3.21-.29 5.22-.29t4.15.32q2.14.32 3.78 1.11 3.6 1.71 3.6 5.31 0 2.89-2.35 5.38-2.21 2.35-4.92 3.1Z"></path><rect width="34.07" height="43.77" x="-17.04" y="-21.89" fill="none" rx="0" ry="0" transform="translate(-135.56 5.99)"></rect><path fill="#fff" d="m-109.5-29.91 6.49-6.38 6.34 6.38-6.34 6.45Zm-2.96 54.33 1.25-.18q1.53-.22 2.49-.45.96-.23 1.5-.84.93-1.1.93-5.06V-6.27q0-4.07-.86-4.91-.85-.83-2.07-1.05-1.21-.21-3.24-.39v-3.06h19.5v3.06q-2.03.21-3.25.43-1.21.21-1.85.82-1.03.96-1.03 5.1v24.16q0 4.07.64 4.81.64.75 1.58 1 .95.25 2.52.5l1.39.22v2.95h-19.5Z"></path><rect width="19.5" height="63.66" x="-9.75" y="-31.83" fill="none" rx="0" ry="0" transform="translate(-102.21 -3.96)"></rect><path fill="#fff" d="M-67.26 23.67q7.05 0 13.01-4.6l2.03 1.96q-4.17 5.06-11.59 6.7-2.35.5-4.7.5-9.23 0-14.69-6.84-5.02-6.38-5.02-15.69 0-9.66 5.1-15.97Q-77.64-17-68.37-17q4.56 0 8.81 1.81.64.29.92.33 2.32-.61 2.75-2.89h2.81V-2.5h-2.95q-1.93-10.73-11.8-10.73-6.35 0-9.52 5.89-2.74 4.99-2.74 13.11 0 13.94 8.44 17.18 1.89.72 4.39.72"></path><rect width="36" height="45.98" x="-18" y="-22.99" fill="none" rx="0" ry="0" transform="translate(-69.72 5.74)"></rect><path fill="#fff" d="m-45.8 24.42 1.21-.18q3.24-.43 3.92-1.18 1-1.14 1-5.17v-42.13q0-4.03-.84-4.85-.84-.82-2.05-1.05-1.21-.23-3.24-.41v-3.03h19.53v3.03q-2.03.22-3.25.43-1.21.21-1.85.82-1.07.96-1.07 5.06v42.13q0 4.07.66 4.83.66.77 1.61 1 .94.23 2.54.48l1.36.22v2.95H-45.8Zm15.86-20.21 11.58-11.2.93-.85q.46-.43.89-.86l.78-.85q.79-.86.79-1.41 0-.55-.38-.89-.37-.34-.98-.48-.99-.29-2.78-.29v-3.1H-.22v2.89q-5.91.64-9.83 4.6L-20.96 2.81.89 33.26l-2.42 2.03Z"></path><rect width="46.69" height="68.87" x="-23.34" y="-34.44" fill="none" rx="0" ry="0" transform="translate(-21.95 1.35)"></rect><path fill="#fff" d="M33.29-13.26q1.64-2.21 1.64-4.19 0-1.98-.82-3.14-.82-1.15-2.21-1.94-2.89-1.6-7.49-1.6-4.17 0-6.91 2.24-2.74 2.28-2.74 5.92 0 4.1 3.56 7.02 1.78 1.46 4.38 2.89Q32.4-1.03 35.25.55q2.85 1.59 5.1 3.51 4.85 4.1 4.85 9.2 0 7.66-5.92 11.55-5.24 3.42-14.26 3.42-7.06 0-13.22-3.07-4.28-2.13-6.06-5.34-.89-1.64-.89-3.64 0-1.99.87-3.54.87-1.56 2.16-2.66 2.38-2.1 5.2-2.64L15 9.62q-1.31 1.82-1.51 3.05-.2 1.23-.2 2.75 0 1.51.97 3.22.96 1.71 2.6 3.03 3.63 2.89 8.59 2.89 8.59 0 11.16-5.46.82-1.74.82-4.13 0-2.39-1.31-4.19-1.3-1.8-3.35-3.21-2.05-1.4-4.61-2.6-2.57-1.19-5.79-2.87-3.23-1.67-6.14-3.58-2.9-1.91-4.79-3.87Q7.7-9.27 7.7-14.33q0-6.24 5.13-9.98 4.92-3.6 12.58-3.6 7.1 0 11.91 2.32 5.06 2.42 5.06 6.41 0 3.78-3.42 6.24-1.21.89-3.03 1.43Z"></path><rect width="40.35" height="56.14" x="-20.18" y="-28.07" fill="none" rx="0" ry="0" transform="translate(25.52 .66)"></rect><path fill="#fff" d="M54.25 24.42q1.6-.36 2.55-.63.94-.27 1.41-.91.78-1.03.78-5.34v-28.88h-6.1v-3.28q5.21-.74 5.99-1.53h-.03q.78-1.07 1.39-4.77.6-3.71.75-5.46l5.16-2.14v12.84h12.91v4.34H66.15v28.77q0 3.31.49 4.22.48.91 1.19 1.34.71.43 1.92.64 1.97.36 7.17.43v3.31H54.25Z"></path><rect width="26.17" height="55.89" x="-13.09" y="-27.95" fill="none" rx="0" ry="0" transform="translate(66.47 -.07)"></rect><path fill="#fff" d="M83.41 5.63q0-2.78.55-5.52.55-2.75 1.67-5.21 1.13-2.46 2.8-4.53 1.68-2.06 3.89-3.56 4.74-3.21 11.01-3.21 9.48 0 14.97 6.77 5.03 6.21 5.03 15.3 0 9.16-5.03 15.57-5.49 6.99-14.97 6.99-9.44 0-14.97-7.09-4.95-6.42-4.95-15.51m15.75 17.86q1.82.78 4.23.78 2.4 0 4.22-.76 1.82-.77 3.14-2.12 1.31-1.36 2.19-3.16.87-1.8 1.41-3.87.96-3.7.96-7.32t-.22-5.85q-.21-2.22-.74-4.24-.54-2.01-1.41-3.76-.88-1.75-2.19-3.03-2.86-2.71-7.35-2.71-8.44 0-10.9 9.7-.97 3.67-.97 8.52 0 14.54 7.63 17.82"></path><rect width="39.92" height="44.63" x="-19.96" y="-22.32" fill="none" rx="0" ry="0" transform="translate(103.87 6.42)"></rect><path fill="#fff" d="M157.55-2.75q1.99-1.92 1.99-5.84 0-1.93-1.81-3.03-1.54-.89-4.67-.89-6.78 0-6.78 4.42V19q0 1.53.31 2.53.3 1 1.37 1.6 1.85 1.07 8.55 1.29v2.95H132.7v-2.92l.07-.03q4.21-.43 5.05-1.2.84-.76 1.03-1.78.2-1.02.2-2.73v-24.7q0-3.88-.77-4.81-.77-.93-1.87-1.28-1.1-.36-2.92-.57v-3.03h7.38q4.38 0 6.23-.18 1.86-.18 2.93-.25 3.2-.29 5.22-.29 2.01 0 4.15.32 2.14.32 3.78 1.11 3.6 1.71 3.6 5.31 0 2.89-2.35 5.38-2.21 2.35-4.92 3.1Z"></path><rect width="34.08" height="43.77" x="-17.04" y="-21.89" fill="none" rx="0" ry="0" transform="translate(150.24 5.99)"></rect><path fill="#fff" d="M208.38 22.06q-4.89 6.03-14.65 6.03-9.41 0-14.72-6.1-5.1-5.88-5.1-15.54 0-9.94 5.67-16.43 5.63-6.42 14.43-6.42 6.74 0 10.52 2.85 3.6 2.68 3.6 7.35 0 6.02-5.85 10.16-6.81 4.81-20.6 4.91 1.25 14.58 13.19 14.58 7.48 0 11.47-3.42Zm-26.81-17q12.69-.25 17.18-6.02 1.64-2.14 1.64-5.31 0-4.14-3.56-5.71-1.39-.6-3.46-.6-2.07 0-3.67.73-1.61.73-2.89 1.99-1.28 1.27-2.24 2.96-.97 1.69-1.61 3.66-1.32 4.02-1.39 8.3"></path><rect width="34.47" height="44.49" x="-17.23" y="-22.25" fill="none" rx="0" ry="0" transform="translate(191.65 6.34)"></rect></g></g><rect width="430.91" height="101.91" x="-215.45" y="-50.95" fill="none" rx="0" ry="0" transform="translate(220.5 418.55)"></rect><path fill="#ff851b" d="M220.452 4.757c-91.644 0-166.203 74.559-166.203 166.203 0 91.64 74.559 166.203 166.203 166.203s166.203-74.562 166.203-166.203c0-91.644-74.559-166.203-166.203-166.203M328.82 282.759h-29.263v-41.248h59.763a156.763 156.763 0 0 1-30.5 41.248m-227.247-11.242V241.51h94.647v41.248h-84.136a157.546 157.546 0 0 1-10.511-11.242M64.668 170.96c0-6.992.473-13.872 1.367-20.62h31.194v41.244H66.035a157.043 157.043 0 0 1-1.367-20.624m47.416-111.8h84.136v41.245h-94.647V70.403a157.546 157.546 0 0 1 10.511-11.242m247.236 41.245h-59.763V59.161h29.263a156.685 156.685 0 0 1 30.5 41.244m2.124 4.343a154.558 154.558 0 0 1 12.783 41.245h-25.175v-41.245zm-115.725 0v41.245H151.07v-41.245zm-45.156-4.343V59.161h94.65v41.244zm-4.343 49.935v41.244h-94.647V150.34zm-45.149 45.587h94.648v41.245H151.07zm49.492 45.584h94.65v41.248h-94.65zm49.499-4.34v-41.244h94.65v41.245zm45.152-45.587h-94.651V150.34h94.65zm-45.152-45.588v-41.248h94.65v41.245zm0-91.175V18.013a155.41 155.41 0 0 1 74.097 36.808zm-4.343-37.584v37.584H151.07V31.512a154.798 154.798 0 0 1 69.381-16.336c8.602 0 17.038.713 25.267 2.061m-128.97 37.584a156.478 156.478 0 0 1 29.979-21.06v21.06zm29.979 49.927v41.245h-80.05a154.473 154.473 0 0 1 12.782-41.245zm-65.144-4.343a156.23 156.23 0 0 1 15.645-24.646v24.646zm65.144 95.522v41.245H79.46a154.517 154.517 0 0 1-12.783-41.245zm-49.495 45.584v24.65a156.098 156.098 0 0 1-15.645-24.65zm49.495 45.588v21.06a156.364 156.364 0 0 1-29.98-21.06zm4.343 0h94.648v37.584a156.578 156.578 0 0 1-25.267 2.06 154.798 154.798 0 0 1-69.38-16.335zm98.991 0h74.097a155.41 155.41 0 0 1-74.097 36.808zm98.987-49.927v-41.245h25.174a154.517 154.517 0 0 1-12.783 41.245zm-49.492-45.588V150.34h75.312a156.99 156.99 0 0 1 1.367 20.62c0 6.988-.473 13.872-1.367 20.624z"></path></svg></svg>